<svg width="900" height="505" viewBox="0 0 900 505" fill="none" xmlns="http://www.w3.org/2000/svg">
<path d="M242.2 375L270.2 235H302.8L359.4 328.6L345.8 328.2L364.4 235H403.2L375.2 375H342.6L286.2 281.4L299.6 281.8L281 375H242.2ZM456.733 289.2H521.733L515.933 318.8H450.933L456.733 289.2ZM448.533 344.4H521.933L515.533 375H403.333L431.333 235H540.933L534.733 265.6H464.133L448.533 344.4ZM570.155 375L552.955 235H591.955L606.555 356.2H585.955L649.955 235H686.555L699.955 356.2H680.555L744.155 235H783.355L709.955 375H667.555L655.155 272H667.155L612.755 375H570.155ZM821.744 377.8C813.744 377.8 806.077 377.133 798.744 375.8C791.41 374.6 784.744 372.867 778.744 370.6C772.744 368.2 767.61 365.6 763.344 362.8L778.944 333.2C783.744 336.133 788.677 338.667 793.744 340.8C798.944 342.8 804.21 344.333 809.544 345.4C814.877 346.467 820.21 347 825.544 347C830.61 347 834.944 346.533 838.544 345.6C842.144 344.533 844.877 343.067 846.744 341.2C848.61 339.333 849.544 337.133 849.544 334.6C849.544 331.8 848.277 329.6 845.744 328C843.344 326.267 840.144 324.8 836.144 323.6C832.144 322.4 827.677 321.2 822.744 320C817.944 318.667 813.077 317.133 808.144 315.4C803.344 313.533 798.944 311.267 794.944 308.6C790.944 305.8 787.677 302.267 785.144 298C782.744 293.733 781.544 288.467 781.544 282.2C781.544 272.067 784.277 263.267 789.744 255.8C795.21 248.333 802.944 242.533 812.944 238.4C823.077 234.267 835.01 232.2 848.744 232.2C858.744 232.2 868.077 233.267 876.744 235.4C885.41 237.4 892.877 240.333 899.144 244.2L884.744 273.6C879.277 270.133 873.21 267.533 866.544 265.8C860.01 263.933 853.277 263 846.344 263C841.01 263 836.41 263.6 832.544 264.8C828.81 266 825.944 267.667 823.944 269.8C822.077 271.8 821.144 274.067 821.144 276.6C821.144 279.267 822.344 281.467 824.744 283.2C827.144 284.933 830.344 286.4 834.344 287.6C838.477 288.8 842.944 290.067 847.744 291.4C852.677 292.6 857.544 294.067 862.344 295.8C867.144 297.4 871.61 299.6 875.744 302.4C879.877 305.067 883.144 308.467 885.544 312.6C887.944 316.733 889.144 321.867 889.144 328C889.144 338 886.41 346.733 880.944 354.2C875.477 361.667 867.677 367.467 857.544 371.6C847.41 375.733 835.477 377.8 821.744 377.8Z" fill="black"/>
<path d="M21.2514 200.186L245.402 81.4576L310.922 86.1489L360.382 127.814C215.599 132.374 162.984 169.85 21.2514 200.186Z" fill="#EA4335"/>
<path d="M306.232 198.859L316.129 109.848L338.67 118.995L360.376 127.803L306.232 198.859Z" fill="#EA4335"/>
<path d="M291.5 120.329L145.059 504.768L200.5 178.5L206.571 147.922L291.5 120.329Z" fill="#EA4335"/>
</svg>
